<?xml version="1.0" standalone="no"?>
<!DOCTYPE svg PUBLIC "-//W3C//DTD SVG 20010904//EN"
 "http://www.w3.org/TR/2001/REC-SVG-20010904/DTD/svg10.dtd">
<svg version="1.0" xmlns="http://www.w3.org/2000/svg"
 width="742.000000pt" height="420.000000pt" viewBox="0 0 742.000000 420.000000"
 preserveAspectRatio="xMidYMid meet">
<metadata>
Created by potrace 1.15, written by Peter Selinger 2001-2017
</metadata>
<g transform="translate(0.000000,420.000000) scale(0.100000,-0.100000)"
fill="#000000" stroke="none">
<path d="M1369 3771 c-88 -57 -251 -245 -376 -431 -227 -341 -426 -830 -522
-1280 -57 -264 -74 -416 -75 -650 -1 -187 2 -236 17 -290 50 -181 149 -283
277 -284 97 0 187 57 273 173 60 81 209 406 298 651 l24 65 6 -125 c8 -165 32
-220 98 -220 88 0 200 262 246 575 26 184 26 181 36 163 5 -8 22 -76 39 -149
34 -146 51 -341 32 -353 -7 -4 -32 12 -57 35 -41 38 -47 41 -61 27 -14 -14
-13 -20 9 -64 32 -64 59 -78 128 -69 74 10 97 27 129 98 l27 61 17 -31 c33
-65 99 -83 134 -38 11 14 28 58 38 97 l18 73 7 -48 c25 -166 110 -292 185
-273 13 4 39 20 58 36 l34 31 39 -27 c31 -21 46 -25 82 -21 53 6 86 29 127 89
31 46 31 46 51 26 72 -72 209 -41 281 62 18 26 32 37 42 33 8 -3 38 -8 65 -10
63 -5 103 18 146 84 25 41 85 211 131 373 l13 45 2 -45 c1 -25 7 -119 13 -210
6 -91 12 -187 13 -214 l2 -48 -75 -22 c-112 -33 -176 -72 -270 -166 -164 -165
-240 -350 -240 -583 1 -175 46 -357 131 -523 96 -188 200 -273 318 -261 127
13 205 110 276 341 112 371 112 941 0 1416 -39 165 -92 428 -103 508 -12 83
-25 104 -61 100 -40 -5 -52 -37 -137 -356 -23 -86 -84 -244 -110 -285 -23 -34
-56 -49 -68 -29 -3 4 4 42 15 83 11 40 22 119 25 174 6 89 5 103 -13 124 -26
32 -56 21 -79 -27 -28 -59 -54 -170 -61 -262 -7 -98 -30 -156 -81 -206 -43
-42 -92 -47 -116 -12 -21 30 -20 57 4 118 49 124 76 341 50 391 -15 27 -56 24
-86 -8 -35 -38 -62 -138 -75 -275 -10 -109 -14 -126 -46 -180 -19 -33 -47 -74
-62 -90 l-26 -29 -25 26 -24 26 17 62 c78 275 132 567 144 773 7 120 -5 167
-47 189 -96 50 -166 -35 -229 -277 -45 -173 -55 -257 -56 -453 0 -172 8 -234
40 -316 3 -9 -4 -28 -16 -44 l-23 -28 -18 23 c-10 12 -30 59 -44 103 -24 74
-27 101 -32 272 -2 106 -9 196 -14 203 -17 20 -66 15 -79 -9 -20 -39 -66 -184
-84 -267 -10 -45 -21 -82 -26 -82 -4 0 -12 30 -19 68 -10 60 -8 82 15 207 44
238 62 628 30 655 -30 25 -54 -17 -90 -157 -47 -187 -67 -352 -71 -580 -2
-183 -6 -223 -25 -295 l-23 -83 -12 90 c-23 172 -93 420 -132 468 -17 20 -51
23 -57 5 -2 -7 -14 -78 -25 -158 -25 -168 -40 -238 -73 -335 -31 -91 -94 -219
-117 -240 -18 -16 -19 -15 -30 25 -7 27 -10 121 -8 269 l3 226 52 157 c81 244
123 417 130 535 5 91 4 103 -11 109 -28 11 -63 -12 -89 -58 -53 -91 -120 -392
-148 -658 -10 -98 -20 -139 -70 -275 -137 -378 -272 -661 -365 -763 -56 -62
-123 -102 -172 -102 -44 0 -97 43 -126 103 -46 94 -59 197 -53 417 18 640 229
1401 514 1863 124 200 300 403 379 439 49 21 99 15 115 -14 14 -25 4 -75 -27
-145 -13 -30 -21 -60 -18 -65 9 -15 61 109 68 164 6 42 4 51 -18 73 -37 37
-107 35 -167 -4z m1192 -1208 c-3 -121 -60 -449 -110 -638 -27 -103 -36 -64
-35 155 1 144 5 211 22 302 25 131 54 220 84 250 30 30 41 9 39 -69z m859
-1050 c-5 -256 -23 -648 -34 -743 -24 -206 -73 -386 -116 -425 -17 -15 -21
-15 -49 0 -67 34 -182 228 -243 408 -41 120 -50 282 -23 383 36 133 137 244
296 328 125 67 169 79 169 49z"/>
<path d="M4004 3726 c-70 -31 -186 -249 -238 -448 -50 -194 -57 -311 -27 -513
34 -227 121 -475 242 -686 75 -130 152 -234 205 -274 l39 -30 1 -145 c1 -157
15 -221 87 -404 45 -116 232 -488 263 -525 29 -35 63 -40 89 -14 15 15 16 48
12 347 -4 354 -14 458 -78 836 -16 96 -29 182 -29 190 0 9 36 34 93 63 50 26
95 47 98 47 4 0 10 -17 14 -37 4 -20 17 -58 31 -84 56 -112 169 -125 221 -26
l14 28 44 -46 c38 -38 50 -45 83 -45 27 0 47 7 65 24 24 22 57 108 57 148 0
24 10 22 38 -6 31 -33 74 -42 105 -21 47 30 61 78 65 223 4 131 5 134 26 128
11 -2 37 -9 56 -13 34 -9 35 -11 47 -76 23 -124 68 -198 146 -238 55 -28 169
-29 224 -1 95 49 175 171 214 327 12 49 24 83 26 75 19 -70 80 -243 97 -273
28 -52 68 -73 107 -57 47 20 84 93 119 235 l17 70 17 -75 c40 -179 131 -281
230 -256 65 16 143 124 240 333 72 155 102 249 92 288 -6 22 -11 26 -37 23
-27 -3 -33 -9 -46 -48 -29 -87 -162 -370 -201 -428 -53 -78 -66 -88 -97 -74
-82 38 -134 305 -118 613 l4 75 102 17 c114 18 300 69 365 99 23 11 47 29 53
40 15 27 2 57 -27 64 -30 8 -253 -19 -374 -45 -47 -10 -86 -17 -88 -16 -2 2 4
42 12 90 21 122 7 172 -43 145 -40 -21 -53 -60 -77 -227 -3 -18 -7 -33 -9 -33
-6 0 -212 -29 -252 -36 -33 -5 -33 -5 -33 38 0 51 12 152 42 367 l21 154 -21
18 c-21 17 -57 16 -68 -2 -25 -42 -70 -284 -84 -461 -6 -67 -12 -123 -14 -125
-1 -2 -76 -4 -164 -5 -89 0 -162 -5 -162 -9 0 -11 83 -34 195 -54 50 -9 101
-19 114 -21 l24 -5 -7 -110 c-13 -221 -69 -438 -135 -526 -57 -75 -95 -96
-160 -90 -66 7 -93 31 -121 104 -32 86 -29 93 33 93 94 0 145 49 154 148 9 97
-29 152 -113 165 -64 10 -138 -48 -175 -138 l-23 -55 -80 6 c-78 6 -82 5 -104
-19 -22 -23 -25 -37 -31 -171 -4 -80 -11 -149 -15 -153 -13 -13 -35 27 -46 86
-31 151 -33 156 -70 156 l-34 0 -17 -118 c-21 -143 -48 -249 -63 -244 -6 2
-19 18 -30 36 -14 25 -21 69 -30 207 -10 154 -14 178 -31 190 -23 17 -27 17
-50 1 -15 -12 -19 -34 -25 -143 -4 -71 -13 -149 -19 -174 -25 -94 -43 -140
-56 -140 -19 0 -43 42 -65 112 l-19 62 30 33 c16 19 41 57 56 86 25 47 28 62
28 158 0 124 -12 149 -72 149 -81 0 -143 -140 -143 -322 0 -64 -1 -65 -122
-132 l-67 -37 -5 23 c-3 13 -20 102 -37 198 -51 289 -57 320 -84 455 -76 381
-129 565 -212 731 -41 82 -82 131 -129 150 -40 17 -41 17 -80 0z m103 -129
c32 -50 65 -131 98 -235 58 -186 88 -347 161 -847 62 -428 60 -412 38 -419
-33 -10 -103 -87 -125 -135 -11 -25 -25 -67 -31 -93 -6 -27 -15 -48 -19 -48
-43 0 -223 335 -299 555 -154 447 -158 735 -14 1079 34 82 94 182 118 198 16
11 45 -10 73 -55z m2466 -654 c7 -11 -57 -386 -78 -458 -20 -71 -65 -175 -75
-175 -4 0 -17 33 -30 73 -12 39 -28 91 -36 115 -37 112 -71 338 -65 429 1 9
38 13 134 16 72 1 135 4 139 5 4 1 9 -1 11 -5z m-2099 -1173 c14 -91 33 -230
41 -310 9 -80 20 -165 25 -190 4 -25 11 -99 15 -165 3 -66 8 -140 10 -165 5
-42 4 -44 -11 -25 -8 11 -53 94 -98 185 -131 258 -173 406 -164 572 4 67 10
94 24 109 13 15 15 22 6 28 -26 16 28 142 80 186 l33 28 7 -44 c4 -24 18 -118
32 -209z"/>
</g>
</svg>
